HIERARCHY
ROOT Hips
{
	OFFSET -0.179506 -22.333345 2.821913
	CHANNELS 6 Xposition Yposition Zposition Zrotation Yrotation Xrotation 
	JOINT LeftUpLeg
	{
		OFFSET 6.951974 -9.140623 -0.681533
		CHANNELS 3 Zrotation Yrotation Xrotation
		JOINT LeftLeg
		{
			OFFSET 3.427654 -37.519855 -0.449580
			CHANNELS 3 Zrotation Yrotation Xrotation
			JOINT LeftFoot
			{
				OFFSET -1.359570 -39.796059 -4.369333
				CHANNELS 3 Zrotation Yrotation Xrotation
				JOINT LeftToe
				{
					OFFSET 2.635814 -5.579078 11.928840
					CHANNELS 3 Zrotation Yrotation Xrotation
					End Site
					{
						OFFSET 0.000000 0.000000 0.000000
					}
				}
			}
		}
	}
	JOINT RightUpLeg
	{
		OFFSET -6.767048 -9.052170 -0.431982
		CHANNELS 3 Zrotation Yrotation Xrotation
		JOINT RightLeg
		{
			OFFSET -3.829005 -38.256897 -0.885003
			CHANNELS 3 Zrotation Yrotation Xrotation
			JOINT RightFoot
			{
				OFFSET 1.577377 -39.841461 -4.231180
				CHANNELS 3 Zrotation Yrotation Xrotation
				JOINT RightToe
				{
					OFFSET -2.537174 -4.814398 12.334795
					CHANNELS 3 Zrotation Yrotation Xrotation
					End Site
					{
						OFFSET 0.000000 0.000000 0.000000
					}
				}
			}
		}
	}
	JOINT Spine
	{
		OFFSET -0.253288 10.896323 -2.669631
		CHANNELS 3 Zrotation Yrotation Xrotation
		JOINT Spine1
		{
			OFFSET 0.548704 13.518043 0.109247
			CHANNELS 3 Zrotation Yrotation Xrotation
			JOINT Spine2
			{
				OFFSET 0.145701 5.292222 2.542457
				CHANNELS 3 Zrotation Yrotation Xrotation
				JOINT Neck
				{
					OFFSET -0.277840 21.387037 -4.285703
					CHANNELS 3 Zrotation Yrotation Xrotation
					JOINT Head
					{
						OFFSET 0.515184 6.496960 5.134897
						CHANNELS 3 Zrotation Yrotation Xrotation
						End Site
						{
							OFFSET 0.000000 0.000000 0.000000
						}
					}
				}
				JOINT LeftShoulder
				{
					OFFSET 7.884473 12.174932 -3.408961
					CHANNELS 3 Zrotation Yrotation Xrotation
					JOINT LeftArm
					{
						OFFSET 9.097692 3.046888 -0.886815
						CHANNELS 3 Zrotation Yrotation Xrotation
						JOINT LeftForeArm
						{
							OFFSET 25.961220 -1.277207 -2.745643
							CHANNELS 3 Zrotation Yrotation Xrotation
							JOINT LeftHand
							{
								OFFSET 24.923361 0.898606 -0.117091
								CHANNELS 3 Zrotation Yrotation Xrotation
								End Site
								{
									OFFSET 0.000000 0.000000 0.000000
								}
							}
						}
					}
				}
				JOINT RightShoulder
				{
					OFFSET -8.175920 11.883285 -3.861528
					CHANNELS 3 Zrotation Yrotation Xrotation
					JOINT RightArm
					{
						OFFSET -9.601238 3.255117 -0.914307
						CHANNELS 3 Zrotation Yrotation Xrotation
						JOINT RightForeArm
						{
							OFFSET -25.374195 -1.332924 -2.140099
							CHANNELS 3 Zrotation Yrotation Xrotation
							JOINT RightHand
							{
								OFFSET -25.529810 0.777228 -0.555919
								CHANNELS 3 Zrotation Yrotation Xrotation
								End Site
								{
									OFFSET 0.000000 0.000000 0.000000
								}
							}
						}
					}
				}
			}
		}
	}
}
MOTION
Frames: 10
Frame Time: 0.033333
-43.363945 -148.306961 85.365356 -162.483911 1.249880 86.562371 12.340989 4.500073 29.398328 -5.978813 -21.980565 19.081671 -5.155736 4.885887 -21.279216 nan nan nan -5.474696 -2.892054 -30.778549 2.097952 -14.602518 20.198186 5.540969 -9.882534 -11.347641 nan nan nan -0.947648 -9.980230 10.135124 4.408302 -4.399997 5.655004 1.676163 -5.716712 0.205523 2.459747 4.663064 -0.125257 -1.462936 -2.564484 6.732855 -25.852217 -0.839215 4.111301 -51.436164 -17.199754 13.162003 1.945126 -41.660033 13.207633 4.007338 -15.600997 -8.100516 28.412200 -2.372943 3.593152 55.385603 -5.916866 11.687420 -13.500448 21.929019 -2.827554 8.728318 8.029641 -1.361452 
-43.221603 -146.667313 85.414703 -162.654583 1.591382 86.807030 12.532596 4.131964 28.751070 -6.273817 -21.634555 21.475319 -5.398265 5.081173 -19.680099 nan nan nan -5.116185 -2.311574 -31.619832 2.375714 -13.548105 22.869396 4.932778 -10.591288 -10.863390 nan nan nan -0.722947 -10.326090 9.486064 4.709178 -4.283422 6.035501 1.557870 -5.565226 0.001754 2.441952 4.630730 -0.306400 -1.638046 -2.342225 7.115014 -26.484728 -0.676248 4.236570 -51.288574 -16.944987 13.109996 2.565395 -41.191821 12.761720 3.118496 -15.208844 -7.441820 28.805494 -2.254977 3.735369 54.860952 -5.710473 11.751612 -13.566898 21.444162 -2.957721 9.200671 7.897581 -1.331655 
-43.092049 -145.023605 85.510056 -162.870646 1.948874 86.850220 12.592960 3.589489 28.146631 -6.615670 -20.994686 24.061797 -5.771782 5.344898 -17.704700 nan nan nan -4.809822 -1.461775 -32.073744 2.729979 -12.946919 25.222789 4.453070 -11.357216 -10.466839 nan nan nan -0.566567 -10.616793 9.187475 4.998446 -4.105925 6.303386 1.519099 -5.445227 -0.229338 2.516922 4.583648 -0.472989 -1.811173 -2.096449 7.403379 -26.940831 -0.526349 4.368784 -51.436973 -16.672153 13.139674 3.244883 -40.531151 12.206523 2.123490 -15.023346 -6.925648 29.060798 -2.108811 3.803079 54.513562 -5.463519 11.824191 -13.625609 20.817711 -3.035846 9.582184 7.674643 -1.100161 
-42.966621 -143.361603 85.653305 -163.162839 2.413407 86.584213 12.824458 3.047713 27.739376 -6.931134 -19.905515 26.714234 -6.419966 5.509516 -15.305423 nan nan nan -4.409251 -0.483867 -31.960541 3.037464 -13.081090 27.261152 3.942617 -11.804661 -10.293526 nan nan nan -0.286796 -10.917219 9.311257 5.212584 -3.973627 6.480311 1.459666 -5.290821 -0.445440 2.585220 4.650405 -0.664662 -1.965880 -1.921856 7.700778 -27.211064 -0.310436 4.286286 -51.804927 -16.286146 13.280390 3.684475 -39.640058 11.364513 1.966820 -15.005789 -7.118775 29.192744 -1.898104 3.833015 54.390390 -5.020106 11.784604 -13.699380 19.903652 -3.139344 9.880486 7.518899 -0.978857 
-42.834034 -141.676086 85.810410 -163.696900 2.866478 86.269807 13.099268 2.690805 27.331259 -7.278156 -18.618815 29.381733 -7.077098 5.589515 -12.653009 nan nan nan -3.868168 0.577335 -31.587789 3.157166 -13.620320 28.965764 3.154893 -11.925784 -10.440740 nan nan nan 0.015659 -11.092478 9.372077 5.360210 -3.796366 6.685947 1.416588 -5.101056 -0.541541 2.541693 4.733095 -0.816516 -2.037075 -1.748229 7.866173 -27.499674 -0.143526 4.114513 -52.228472 -15.802473 13.399745 4.139368 -38.743506 10.517621 2.027852 -14.890011 -7.336082 29.239824 -1.599286 3.880777 54.293125 -4.575321 11.660186 -13.727988 19.108720 -3.187912 10.219334 7.495434 -1.160867 
-42.667770 -139.992386 85.965805 -164.367474 3.236426 86.008021 13.294438 2.389834 26.730190 -7.628173 -17.086155 32.109356 -7.548543 5.777350 -10.222279 nan nan nan -3.265426 1.531267 -31.004201 3.304824 -14.153917 30.189477 2.029412 -11.745544 -10.650178 nan nan nan 0.221974 -11.077408 9.409432 5.452827 -3.672601 6.790030 1.417377 -4.869210 -0.620257 2.441935 4.719725 -0.710492 -1.912794 -1.455581 7.779859 -27.647895 -0.149056 4.149162 -52.760129 -15.254491 13.333947 4.826611 -37.852856 9.856796 1.661764 -14.713958 -7.396877 29.142797 -1.207103 3.975559 54.284925 -4.345482 11.629766 -13.562284 18.675673 -2.839542 10.095002 7.504408 -1.806448 
-42.515339 -138.366623 86.127502 -164.986589 3.430954 85.732819 13.212762 2.155934 25.896252 -7.710231 -15.415098 35.034649 -7.615728 6.296436 -8.129930 nan nan nan -2.640058 2.012570 -30.151451 3.525778 -14.295884 30.932191 0.750994 -11.508901 -10.866809 nan nan nan 0.366719 -10.843530 9.600467 5.451541 -3.698207 6.725786 1.375551 -4.736781 -0.670962 2.332528 4.573218 -0.569037 -1.700084 -1.114852 7.690956 -27.614857 -0.191252 4.226713 -53.251495 -14.701052 13.137649 5.318900 -37.034726 9.521564 1.391053 -14.511255 -7.541008 28.972405 -0.792233 4.047226 54.471881 -4.108905 11.691267 -13.397462 18.350681 -2.201266 9.653076 7.451374 -2.161948 
-42.422588 -136.796310 86.291077 -165.541537 3.324779 85.499988 12.697556 2.134638 24.828040 -7.529869 -14.002110 38.021794 -7.180374 6.844492 -5.882216 nan nan nan -2.070346 2.041579 -29.144448 3.630818 -13.778262 31.374270 -0.498949 -11.277752 -11.179104 nan nan nan 0.377912 -10.382458 9.791233 5.363450 -3.795873 6.621636 1.320457 -4.723813 -0.745085 2.110959 4.255187 -0.445196 -1.432418 -0.772751 7.680943 -27.556121 -0.320943 4.338048 -53.547360 -14.118580 12.968275 5.457241 -36.365718 9.398790 1.643212 -14.055843 -7.930019 28.786127 -0.459870 4.053813 54.809349 -3.930540 11.688122 -13.416623 18.223293 -1.934311 9.324171 7.338671 -2.296732 
-42.329300 -135.254257 86.447800 -166.041758 3.042915 85.390166 11.919806 2.165376 23.428820 -7.145397 -12.627488 41.040070 -6.362948 7.491276 -3.446330 nan nan nan -1.448203 1.749438 -28.153500 3.509460 -12.825058 31.652636 -1.651809 -11.175593 -11.557394 nan nan nan 0.293939 -9.754000 9.853516 5.215626 -3.939677 6.479424 1.245283 -4.701576 -0.794121 1.863273 3.774994 -0.380319 -1.041600 -0.465824 7.703493 -27.458026 -0.559734 4.496064 -53.760500 -13.596764 12.813361 5.371059 -35.680854 9.529602 1.818266 -13.521075 -8.454607 28.681285 -0.282695 3.989064 55.259226 -3.890927 11.547331 -13.683006 18.388916 -1.941235 9.358435 7.197691 -2.241161 
-42.205090 -133.744019 86.602516 -166.445315 2.733704 85.318562 11.135623 2.081401 21.834099 -6.684430 -11.203137 44.068937 -5.539848 8.371595 -1.513883 nan nan nan -0.798941 1.363117 -27.171004 3.194736 -11.872376 31.916597 -2.501386 -11.150942 -12.029131 nan nan nan 0.153130 -9.052315 9.836337 5.078576 -4.094730 6.395548 1.157232 -4.665263 -0.713366 1.752479 3.322980 -0.528281 -0.750154 -0.338565 7.766743 -27.317273 -0.828367 4.496326 -53.951232 -13.237307 12.736690 5.097102 -34.894549 9.915791 1.767023 -13.023868 -8.873770 28.634448 -0.249118 3.804732 55.745253 -3.797209 11.381432 -14.092644 18.728536 -2.052057 9.552147 6.989684 -2.202148 
